<?xml version="1.0" encoding="UTF-8"?>
<svg id="Layer_1" xmlns="http://www.w3.org/2000/svg" version="1.1" viewBox="0 0 180 180">
  <!-- Generator: Adobe Illustrator 30.0.0, SVG Export Plug-In . SVG Version: 2.1.1 Build 123)  -->
  <defs>
    <style>
      .st0 {
        fill: #6ebd44;
      }
    </style>
  </defs>
  <path class="st0" d="M92.57,12.05l-7.5,1.73c-22,6.21-35.99,27.04-27.45,49.62,3.34,8.82,9.66,15.09,16.48,21.29-12.25,8.06-25.81,15.18-33.64,28.12-7.88,13.02-7.91,29.13,3.59,39.99.04.21-.28.18-.41.13-1.59-.65-6.25-4.47-7.73-5.78-13.3-11.78-22.74-29.65-24.91-47.33C5.03,51.24,44.3,10.43,92.57,12.05Z"/>
  <path class="st0" d="M72.99,165.9c-.06-.49.62-.27.93-.24,13.2,1.2,29.11-2.27,40.3-9.4,22.55-14.38,27.39-41.01,10.6-62.17-5.07-6.39-11.5-11.47-17.07-17.35,14.4-8.64,37.17-22.04,33.55-42.15-.26-1.42-.9-2.69-1.17-4.07,3.3,2.66,6.33,5.61,9.1,8.82,29.8,34.47,23.15,86.05-13.12,112.89-17.92,13.26-41.19,18.33-63.11,13.67Z"/>
  <path class="st0" d="M81.13,91.8c11.63,10.76,26.33,23.49,21.01,41.35-5.69,19.11-31.9,22.64-41.88,4.81-10.35-18.5,6.89-36.13,20.87-46.16Z"/>
  <path class="st0" d="M102.99,23.16c7.49-.53,14.75,3.54,17.75,10.49,6.56,15.23-9.63,28.52-20.55,36.27-9.26-8.63-19.15-20.96-13.82-34.43,2.7-6.83,9.23-11.8,16.62-12.33Z"/>
</svg>