<?xml version="1.0" encoding="UTF-8"?>
<svg id="Layer_1" data-name="Layer 1" xmlns="http://www.w3.org/2000/svg" viewBox="0 0 612 259.35">
  <defs>
    <style>
      .cls-1 {
        fill: #6ebe45;
      }

      .cls-2 {
        fill: #fff;
      }
    </style>
  </defs>
  <g>
    <path class="cls-1" d="M117.81,52.81l-8.45,1.95c-24.77,6.99-40.51,30.44-30.9,55.87,3.75,9.93,10.88,16.99,18.55,23.97-13.79,9.07-29.06,17.08-37.87,31.66-8.87,14.66-8.9,32.79,4.04,45.02.05.23-.32.21-.46.15-1.79-.74-7.04-5.03-8.7-6.51-14.97-13.26-25.6-33.38-28.04-53.28-6.71-54.7,37.5-100.65,91.84-98.82Z"/>
    <path class="cls-1" d="M95.78,226.01c-.07-.56.7-.3,1.04-.27,14.86,1.36,32.77-2.55,45.37-10.59,25.38-16.18,30.84-46.17,11.93-69.99-5.7-7.19-12.95-12.91-19.22-19.53,16.22-9.73,41.85-24.81,37.77-47.45-.29-1.59-1.02-3.02-1.32-4.58,3.72,2.99,7.13,6.31,10.25,9.93,33.54,38.81,26.06,96.87-14.78,127.08-20.18,14.93-46.38,20.64-71.05,15.39Z"/>
    <path class="cls-1" d="M104.93,142.59c13.09,12.11,29.64,26.44,23.65,46.55-6.41,21.51-35.91,25.49-47.14,5.42-11.66-20.83,7.76-40.68,23.49-51.97Z"/>
    <path class="cls-1" d="M129.55,65.32c8.43-.6,16.61,3.98,19.98,11.8,7.38,17.15-10.84,32.11-23.13,40.83-10.43-9.71-21.55-23.59-15.56-38.76,3.04-7.69,10.39-13.29,18.71-13.88Z"/>
  </g>
  <g>
    <path class="cls-2" d="M305.6,119.56c-2.87,5.4-7.47,9.79-13.78,13.18-6.32,3.39-14.41,5.08-24.29,5.08h-21.7v48.57h-19.64v-119.71h41.34c9.19,0,16.97,1.58,23.34,4.74,6.37,3.16,11.14,7.44,14.3,12.83,3.16,5.4,4.74,11.43,4.74,18.09,0,6.09-1.44,11.83-4.31,17.22ZM284.24,116.72c3.67-3.39,5.51-8.18,5.51-14.38,0-13.09-7.41-19.64-22.22-19.64h-21.7v39.1h21.7c7.46,0,13.03-1.69,16.71-5.08Z"/>
    <path class="cls-2" d="M331.78,181.83c-7.23-4.07-12.92-9.82-17.05-17.22-4.13-7.41-6.2-15.99-6.2-25.75s2.12-18.2,6.37-25.66c4.25-7.46,10.05-13.2,17.4-17.22,7.35-4.02,15.56-6.03,24.63-6.03s17.28,2.01,24.63,6.03c7.35,4.02,13.15,9.76,17.4,17.22,4.25,7.47,6.37,16.02,6.37,25.66s-2.18,18.2-6.55,25.66c-4.37,7.47-10.31,13.24-17.83,17.31-7.52,4.08-15.82,6.11-24.89,6.11s-17.05-2.04-24.29-6.11ZM370.28,167.27c4.42-2.41,8.01-6.03,10.77-10.85,2.76-4.82,4.13-10.68,4.13-17.57s-1.32-12.72-3.96-17.48c-2.64-4.76-6.14-8.35-10.51-10.77-4.36-2.41-9.07-3.62-14.12-3.62s-9.73,1.21-14.04,3.62c-4.31,2.41-7.72,6-10.25,10.77-2.53,4.77-3.79,10.59-3.79,17.48,0,10.22,2.61,18.12,7.84,23.68,5.22,5.57,11.8,8.35,19.72,8.35,5.05,0,9.79-1.21,14.21-3.62Z"/>
    <path class="cls-2" d="M430.65,91.49v94.91h-19.64v-94.91h19.64Z"/>
    <path class="cls-2" d="M510.66,94.59c5.91,3.1,10.53,7.69,13.87,13.78,3.33,6.09,4.99,13.44,4.99,22.05v55.98h-19.46v-53.05c0-8.5-2.13-15.01-6.37-19.55-4.25-4.53-10.05-6.8-17.4-6.8s-13.18,2.27-17.48,6.8c-4.31,4.54-6.46,11.05-6.46,19.55v53.05h-19.64v-94.91h19.64v10.85c3.21-3.9,7.32-6.95,12.32-9.13,4.99-2.18,10.3-3.27,15.93-3.27,7.46,0,14.15,1.55,20.07,4.65Z"/>
    <path class="cls-2" d="M563.62,107.51v52.53c0,3.56.83,6.11,2.5,7.66,1.66,1.55,4.51,2.33,8.53,2.33h12.06v16.36h-15.5c-8.84,0-15.62-2.07-20.32-6.2-4.71-4.13-7.06-10.85-7.06-20.15v-52.53h-11.2v-16.02h11.2v-23.6h19.81v23.6h23.08v16.02h-23.08Z"/>
  </g>
  <g>
    <path class="cls-1" d="M241.01,202.73c1.99,1.01,3.51,2.46,4.57,4.34,1.06,1.88,1.59,4.1,1.59,6.65s-.53,4.76-1.59,6.63c-1.06,1.87-2.58,3.3-4.57,4.29-1.99.99-4.34,1.48-7.06,1.48h-7.75v-24.91h7.75c2.72,0,5.07.51,7.06,1.52ZM241.31,220.88c1.69-1.7,2.54-4.09,2.54-7.16s-.85-5.51-2.55-7.25c-1.7-1.74-4.15-2.61-7.34-2.61h-4.5v19.58h4.5c3.22,0,5.67-.85,7.36-2.55Z"/>
    <path class="cls-1" d="M259.07,201.21v24.91h-3.25v-24.91h3.25Z"/>
    <path class="cls-1" d="M287.83,208.43c-.69-1.45-1.69-2.58-3-3.38-1.31-.8-2.84-1.2-4.57-1.2s-3.31.4-4.7,1.2c-1.39.8-2.49,1.94-3.29,3.43-.8,1.49-1.2,3.21-1.2,5.16s.4,3.67,1.2,5.15c.8,1.48,1.89,2.61,3.29,3.41,1.39.8,2.96,1.2,4.7,1.2,2.43,0,4.43-.73,6-2.18,1.57-1.45,2.49-3.42,2.75-5.9h-9.93v-2.64h13.4v2.5c-.19,2.05-.83,3.92-1.93,5.63-1.1,1.7-2.54,3.05-4.32,4.04-1.79.99-3.78,1.48-5.97,1.48-2.31,0-4.42-.54-6.32-1.63-1.91-1.08-3.41-2.59-4.52-4.52-1.11-1.93-1.66-4.11-1.66-6.54s.55-4.61,1.66-6.56c1.11-1.94,2.61-3.45,4.52-4.54,1.91-1.08,4.01-1.63,6.32-1.63,2.64,0,4.98.66,7.02,1.97,2.04,1.31,3.52,3.16,4.45,5.54h-3.89Z"/>
    <path class="cls-1" d="M304.38,201.21v24.91h-3.25v-24.91h3.25Z"/>
    <path class="cls-1" d="M329.61,201.21v2.64h-6.79v22.26h-3.25v-22.26h-6.82v-2.64h16.87Z"/>
    <path class="cls-1" d="M352.69,220.58h-10.86l-2,5.54h-3.43l9-24.76h3.75l8.97,24.76h-3.43l-2-5.54ZM351.76,217.93l-4.5-12.58-4.5,12.58h9Z"/>
    <path class="cls-1" d="M369.66,223.47h8.72v2.64h-11.97v-24.91h3.25v22.26Z"/>
    <path class="cls-1" d="M403.59,225.49c-1.3-.58-2.32-1.39-3.05-2.43-.74-1.04-1.12-2.23-1.14-3.59h3.47c.12,1.17.6,2.15,1.45,2.95.85.8,2.08,1.2,3.7,1.2s2.77-.39,3.66-1.16c.89-.77,1.34-1.77,1.34-2.98,0-.95-.26-1.73-.79-2.32-.52-.6-1.18-1.05-1.97-1.36-.79-.31-1.85-.64-3.18-1-1.64-.43-2.96-.86-3.95-1.29-.99-.43-1.83-1.1-2.54-2.02-.7-.92-1.05-2.15-1.05-3.7,0-1.36.34-2.56,1.04-3.61.69-1.05,1.66-1.86,2.91-2.43,1.25-.57,2.69-.86,4.31-.86,2.33,0,4.25.58,5.73,1.75,1.49,1.17,2.33,2.72,2.52,4.65h-3.57c-.12-.95-.62-1.79-1.5-2.52-.88-.73-2.05-1.09-3.5-1.09-1.36,0-2.47.35-3.32,1.05-.86.7-1.29,1.69-1.29,2.95,0,.91.26,1.64.77,2.22.51.57,1.14,1.01,1.89,1.3.75.3,1.8.64,3.16,1.02,1.64.45,2.97.9,3.97,1.34,1,.44,1.86,1.12,2.57,2.04.71.92,1.07,2.16,1.07,3.73,0,1.21-.32,2.36-.96,3.43-.64,1.07-1.6,1.94-2.86,2.61-1.26.67-2.75,1-4.47,1s-3.11-.29-4.41-.88Z"/>
    <path class="cls-1" d="M428.69,203.86v8.33h9.08v2.68h-9.08v8.58h10.15v2.68h-13.4v-24.94h13.4v2.68h-10.15Z"/>
    <path class="cls-1" d="M461.24,226.12l-5.93-10.18h-3.93v10.18h-3.25v-24.91h8.04c1.88,0,3.47.32,4.77.96,1.3.64,2.27,1.51,2.91,2.61.64,1.1.96,2.35.96,3.75,0,1.72-.49,3.23-1.48,4.54-.99,1.31-2.47,2.18-4.45,2.61l6.25,10.43h-3.89ZM451.38,213.32h4.79c1.76,0,3.08-.43,3.97-1.3.88-.87,1.32-2.03,1.32-3.48s-.44-2.62-1.3-3.43c-.87-.81-2.2-1.21-3.98-1.21h-4.79v9.43Z"/>
    <path class="cls-1" d="M494.8,201.21l-9.4,24.91h-3.75l-9.4-24.91h3.47l7.83,21.48,7.83-21.48h3.43Z"/>
    <path class="cls-1" d="M505.98,201.21v24.91h-3.25v-24.91h3.25Z"/>
    <path class="cls-1" d="M516.31,207.09c1.1-1.94,2.59-3.46,4.48-4.56,1.89-1.1,4-1.64,6.31-1.64,2.72,0,5.09.66,7.11,1.97,2.02,1.31,3.5,3.17,4.43,5.57h-3.89c-.69-1.5-1.69-2.66-2.98-3.47-1.3-.81-2.85-1.21-4.66-1.21s-3.3.41-4.68,1.21c-1.38.81-2.47,1.96-3.25,3.45-.79,1.49-1.18,3.23-1.18,5.23s.39,3.71,1.18,5.2c.79,1.49,1.87,2.64,3.25,3.45,1.38.81,2.94,1.22,4.68,1.22s3.36-.4,4.66-1.2c1.3-.8,2.29-1.95,2.98-3.45h3.89c-.93,2.38-2.41,4.22-4.43,5.52-2.03,1.3-4.4,1.95-7.11,1.95-2.31,0-4.41-.54-6.31-1.63s-3.39-2.59-4.48-4.52c-1.1-1.93-1.64-4.11-1.64-6.54s.55-4.61,1.64-6.56Z"/>
    <path class="cls-1" d="M551.08,203.86v8.33h9.08v2.68h-9.08v8.58h10.15v2.68h-13.4v-24.94h13.4v2.68h-10.15Z"/>
    <path class="cls-1" d="M574,225.49c-1.3-.58-2.32-1.39-3.05-2.43-.74-1.04-1.12-2.23-1.14-3.59h3.47c.12,1.17.6,2.15,1.45,2.95.85.8,2.08,1.2,3.7,1.2s2.77-.39,3.66-1.16c.89-.77,1.34-1.77,1.34-2.98,0-.95-.26-1.73-.79-2.32-.52-.6-1.18-1.05-1.97-1.36-.79-.31-1.85-.64-3.18-1-1.64-.43-2.96-.86-3.95-1.29-.99-.43-1.83-1.1-2.54-2.02-.7-.92-1.05-2.15-1.05-3.7,0-1.36.34-2.56,1.04-3.61.69-1.05,1.66-1.86,2.91-2.43,1.25-.57,2.69-.86,4.31-.86,2.33,0,4.25.58,5.73,1.75,1.49,1.17,2.33,2.72,2.52,4.65h-3.57c-.12-.95-.62-1.79-1.5-2.52-.88-.73-2.05-1.09-3.5-1.09-1.36,0-2.47.35-3.32,1.05-.86.7-1.29,1.69-1.29,2.95,0,.91.26,1.64.77,2.22.51.57,1.14,1.01,1.89,1.3.75.3,1.8.64,3.16,1.02,1.64.45,2.97.9,3.97,1.34,1,.44,1.86,1.12,2.57,2.04.71.92,1.07,2.16,1.07,3.73,0,1.21-.32,2.36-.96,3.43-.64,1.07-1.6,1.94-2.86,2.61-1.26.67-2.75,1-4.47,1s-3.11-.29-4.41-.88Z"/>
  </g>
  <path class="cls-1" d="M412.05,75.3c-2.41-2.41-3.62-5.4-3.62-8.96s1.21-6.55,3.62-8.96c2.41-2.41,5.4-3.62,8.96-3.62s6.37,1.21,8.78,3.62c2.41,2.41,3.62,5.4,3.62,8.96s-1.21,6.55-3.62,8.96c-2.41,2.41-5.34,3.62-8.78,3.62s-6.55-1.21-8.96-3.62Z"/>
</svg>